<?xml version="1.0" encoding="utf-8"?>
<!-- Generator: Adobe Illustrator 21.1.0, SVG Export Plug-In . SVG Version: 6.00 Build 0)  -->
<svg version="1.1" id="Capa_1" xmlns="http://www.w3.org/2000/svg" xmlns:xlink="http://www.w3.org/1999/xlink" x="0px" y="0px"
	 viewBox="0 0 455.7 455.7" enable-background="new 0 0 455.7 455.7" xml:space="preserve">
<radialGradient id="SVGID_1_" cx="20.0428" cy="483.0563" r="598.3858" gradientTransform="matrix(1.0037 0 0 1.0037 -0.7255 0)" gradientUnits="userSpaceOnUse">
	<stop  offset="0" style="stop-color:#FCCC63"/>
	<stop  offset="8.107393e-02" style="stop-color:#FBB655"/>
	<stop  offset="0.1346" style="stop-color:#FBAD50"/>
	<stop  offset="0.3169" style="stop-color:#E95950"/>
	<stop  offset="0.418" style="stop-color:#DC515D"/>
	<stop  offset="0.5045" style="stop-color:#CD486B"/>
	<stop  offset="0.6606" style="stop-color:#BC2A8D"/>
	<stop  offset="0.7451" style="stop-color:#A631A0"/>
	<stop  offset="0.8706" style="stop-color:#8A3AB9"/>
	<stop  offset="1" style="stop-color:#4C68D7"/>
</radialGradient>
<rect x="0" y="0" fill="url(#SVGID_1_)" width="455.7" height="455.7"/>
<g>
	<g>
		<path fill="#FFFFFF" d="M302.3,400.7H153.4c-54.3,0-98.4-44.1-98.4-98.4V153.4C55,99.1,99.1,55,153.4,55h148.9
			c54.3,0,98.4,44.1,98.4,98.4v148.9C400.7,356.6,356.6,400.7,302.3,400.7z M153.4,84.6c-37.9,0-68.8,30.8-68.8,68.8v148.9
			c0,37.9,30.8,68.8,68.8,68.8h148.9c37.9,0,68.8-30.8,68.8-68.8V153.4c0-37.9-30.8-68.8-68.8-68.8H153.4z"/>
	</g>
	<g>
		<path fill="#FFFFFF" d="M227.9,316.4c-48.8,0-88.5-39.7-88.5-88.5c0-48.8,39.7-88.5,88.5-88.5c48.8,0,88.5,39.7,88.5,88.5
			C316.4,276.7,276.7,316.4,227.9,316.4z M227.9,169c-32.5,0-58.9,26.4-58.9,58.9s26.4,58.9,58.9,58.9c32.5,0,58.9-26.4,58.9-58.9
			S260.3,169,227.9,169z"/>
	</g>
	<g>
		<circle fill="#FFFFFF" cx="320.2" cy="134.3" r="21.3"/>
	</g>
</g>
</svg>
