<?xml version="1.0" encoding="utf-8"?>
<!-- Generator: Adobe Illustrator 21.1.0, SVG Export Plug-In . SVG Version: 6.00 Build 0)  -->
<svg version="1.1" id="Capa_1" xmlns="http://www.w3.org/2000/svg" xmlns:xlink="http://www.w3.org/1999/xlink" x="0px" y="0px"
	 viewBox="0 0 455.7 455.7" enable-background="new 0 0 455.7 455.7" xml:space="preserve">
<rect x="0" y="0" fill="#1D75A3" width="455.7" height="455.7"/>
<path fill="#1E76A4" d="M113.1,241.8l1.8,10l0.2,0.1l2.2-10.1l14.6-46.2h10l14.6,46.2l2.3,11h0.2l2.3-11l11.7-46.2h12.3l-21,72.3
	h-10L140,223.3l-3.1-12.9h-0.2l-3,12.9l-14,44.6h-10.1l-21-72.3h12.4L113.1,241.8z M113.1,241.8"/>
<path fill="#1E76A4" d="M216.7,241.8l1.8,10l0.2,0.1l2.2-10.1l14.6-46.2h10l14.6,46.2l2.3,11h0.2l2.3-11l11.7-46.2h12.3l-21,72.3
	h-10l-14.3-44.6l-3.1-12.9h-0.2l-3,12.9l-14,44.6h-10.1l-21-72.3h12.4L216.7,241.8z M216.7,241.8"/>
<path fill="#1E76A4" d="M320.3,241.8l1.8,10l0.2,0.1l2.2-10.1l14.6-46.2h10l14.6,46.2l2.3,11h0.2l2.3-11l11.7-46.2h12.3l-21,72.3
	h-10l-14.3-44.6l-3.1-12.9h-0.2l-3,12.9l-14,44.6h-10.1l-21-72.3h12.4L320.3,241.8z M320.3,241.8"/>
<g>
	<path fill="#FFFFFF" d="M395.8,286.4c6.4-18.3,9.9-38,9.9-58.5c0-20.5-3.5-40.2-9.9-58.5c-0.2-0.5-0.3-1.1-0.6-1.6
		C370.5,99.2,304.8,50,227.8,50S85.2,99.2,60.5,167.7c-0.2,0.5-0.4,1.1-0.6,1.6c-6.4,18.3-9.9,38-9.9,58.5c0,20.5,3.5,40.2,9.9,58.5
		c0.2,0.5,0.3,1.1,0.6,1.6c24.7,68.6,90.4,117.7,167.4,117.7S370.5,356.5,395.2,288C395.5,287.4,395.6,286.9,395.8,286.4
		L395.8,286.4z M227.8,380.2c-6.8,0-17.7-12.3-26.8-39.6c-4.4-13.2-7.9-28.4-10.5-44.9h74.6c-2.6,16.5-6.1,31.7-10.5,44.9
		C245.5,367.9,234.6,380.2,227.8,380.2L227.8,380.2z M187.4,270.1c-1.2-13.6-1.9-27.8-1.9-42.3c0-14.5,0.6-28.7,1.9-42.3h80.8
		c1.2,13.6,1.9,27.8,1.9,42.3c0,14.5-0.6,28.7-1.9,42.3H187.4z M75.5,227.8c0-14.7,2.1-28.9,6-42.3h80.4
		c-1.2,13.9-1.8,28.1-1.8,42.3c0,14.2,0.6,28.4,1.8,42.3H81.5C77.6,256.7,75.5,242.5,75.5,227.8L75.5,227.8z M227.8,75.5
		c6.8,0,17.7,12.3,26.8,39.6c4.4,13.2,7.9,28.4,10.5,44.9h-74.6c2.6-16.5,6.1-31.7,10.5-44.9C210.2,87.8,221.1,75.5,227.8,75.5
		L227.8,75.5z M293.8,185.6h80.4c3.9,13.4,6,27.6,6,42.3c0,14.7-2.1,28.9-6,42.3h-80.4c1.2-13.9,1.8-28.1,1.8-42.3
		C295.6,213.7,295,199.4,293.8,185.6L293.8,185.6z M364.3,160.1h-73.4c-4.5-31.3-12.3-59.3-23.2-79.3
		C310,92.3,345,121.5,364.3,160.1L364.3,160.1z M188,80.8c-10.9,20-18.7,48-23.2,79.3H91.4C110.7,121.5,145.7,92.3,188,80.8
		L188,80.8z M91.4,295.6h73.4c4.5,31.3,12.3,59.3,23.2,79.3C145.7,363.4,110.7,334.2,91.4,295.6L91.4,295.6z M267.7,374.9
		c10.9-20,18.7-48,23.2-79.3h73.4C345,334.2,310,363.4,267.7,374.9L267.7,374.9z M267.7,374.9"/>
</g>
</svg>
