<?xml version="1.0" encoding="UTF-8"?>
<!DOCTYPE svg PUBLIC "-//W3C//DTD SVG 1.1//EN" "http://www.w3.org/Graphics/SVG/1.1/DTD/svg11.dtd">
<svg version="1.1" xmlns="http://www.w3.org/2000/svg" xmlns:xlink="http://www.w3.org/1999/xlink" x="0" y="0" width="114.746" height="114.746" viewBox="0, 0, 114.746, 114.746">
  <g id="Background">
    <rect x="0" y="0" width="114.746" height="114.746" fill="#FFFFFF"/>
  </g>
  <g id="Capa_x0020_1">
    <path d="M24.389,0 L90.358,0 C103.772,0 114.746,10.975 114.746,24.389 L114.746,90.358 C114.746,103.772 103.772,114.746 90.358,114.746 L24.389,114.746 C10.975,114.746 0,103.772 0,90.358 L0,24.389 C0,10.975 10.975,0 24.389,0 z" fill="#9445FF"/>
  </g>
  <g id="Ebene_3">
    <g id="twitch">
      <path d="M36.714,21.667 L21.714,36.667 L21.714,90.666 L39.713,90.666 L39.713,105.667 L54.713,90.666 L66.713,90.666 L93.715,63.667 L93.715,21.667 z M87.715,60.666 L75.716,72.665 L63.714,72.665 L53.214,83.165 L53.214,72.665 L39.713,72.665 L39.713,27.666 L87.715,27.666 z" fill="#000201" id="Pfad_2"/>
      <path d="M87.715,28 L39.713,28 L39.713,72.999 L53.214,72.999 L53.214,83.499 L63.714,72.999 L75.716,72.999 L87.715,60.999 z" fill="#FFFFFF" id="Pfad_2"/>
      <path d="M72.715,38.166 L78.714,38.166 L78.714,56.165 L72.715,56.165 z" fill="#000201" id="Rechteck_2"/>
      <path d="M56.215,38.166 L62.215,38.166 L62.215,56.165 L56.215,56.165 z" fill="#000201" id="Rechteck_3"/>
    </g>
  </g>
</svg>
